# Blender v2.81 (sub 16) OBJ File: 'cenario.blend'
# www.blender.org
mtllib cenario.mtl
o Plane
v 20.450054 0.000000 20.755615
v 7.589063 -0.014799 27.828262
v 25.360834 0.000000 -13.621395
v 20.450054 9.249884 20.755615
v 7.589063 9.249884 27.828262
v 6.671337 0.585769 19.891663
v 7.589063 1.064479 27.828262
v 6.671337 1.064479 19.891663
v 8.436338 0.268308 28.489389
v 7.421016 0.268308 19.230536
v 8.436338 0.698222 28.489389
v 7.421016 0.698222 19.230536
v 9.399763 -0.063252 29.241150
v 8.273466 -0.063252 18.478775
v 9.399763 0.315852 29.241150
v 8.273466 0.315852 18.478775
v 26.941257 10.983408 31.246094
v 24.647713 0.000000 -34.449017
v 24.647717 0.000000 31.246094
v 24.647713 10.983408 -34.449017
v 24.647717 10.983408 31.246094
v 2.972989 0.000000 -13.621395
v 2.972989 6.945110 -34.421947
v 25.360834 1.454858 -13.621395
v 25.360834 8.399968 -34.421947
v 2.972989 1.454858 -13.621395
v 2.972989 8.399968 -34.421947
v 7.589063 0.585769 27.828262
v 6.706778 1.651125 27.678329
v 6.706778 8.525488 27.678329
v 6.706778 1.651125 27.895287
v 6.706778 8.525488 27.895287
v 26.941257 0.000000 31.246094
v -20.450054 0.000000 20.755615
v -7.589063 -0.014799 27.828262
v -25.360834 0.000000 -13.621395
v -20.450054 9.249884 20.755615
v -7.589063 9.249884 27.828262
v -6.671337 0.585769 19.891663
v -7.589063 1.064479 27.828262
v -6.671337 1.064479 19.891663
v -8.436338 0.268308 28.489389
v -7.421016 0.268308 19.230536
v -8.436338 0.698222 28.489389
v -7.421016 0.698222 19.230536
v -9.399763 -0.063252 29.241150
v -8.273466 -0.063252 18.478775
v -9.399763 0.315852 29.241150
v -8.273466 0.315852 18.478775
v 0.000000 10.983408 -34.449017
v -26.941257 10.983408 31.246094
v -24.647713 0.000000 -34.449017
v -24.647717 0.000000 31.246094
v -24.647713 10.983408 -34.449017
v -24.647717 10.983408 31.246094
v 0.000000 0.000000 27.828262
v 0.000000 0.585769 19.891663
v 0.000000 1.064479 27.828262
v 0.000000 1.064479 19.891663
v 0.000000 10.983408 31.246096
v 0.000000 0.268308 19.230536
v 0.000000 0.698222 28.489389
v 0.000000 0.698222 19.230536
v 0.000000 -0.063252 18.478775
v 0.000000 0.315852 29.241150
v 0.000000 0.315852 18.478775
v 0.000000 0.000000 -34.449017
v 0.000000 6.945110 -34.421947
v 0.000000 0.000000 31.246096
v -2.972989 0.000000 -13.621395
v -2.972989 6.945110 -34.421947
v -25.360834 1.454858 -13.621395
v -25.360834 8.399968 -34.421947
v -2.972989 1.454858 -13.621395
v -2.972989 8.399968 -34.421947
v -7.589063 0.585769 27.828262
v 0.000000 9.249884 27.828262
v 0.000000 1.651125 27.678329
v -6.706778 1.651125 27.678329
v 0.000000 8.525488 27.678329
v -6.706778 8.525488 27.678329
v 0.000000 1.651125 27.895288
v -6.706778 1.651125 27.895287
v 0.000000 8.525488 27.895288
v -6.706778 8.525488 27.895287
v -26.941257 0.000000 31.246094
v 0.000000 0.000000 -13.621395
vt 0.554555 0.887888
vt 0.445445 0.667668
vt 0.445445 0.887888
vt 0.998999 0.001001
vt 0.889890 0.110110
vt 0.998999 0.110110
vt 0.887888 0.894832
vt 0.778779 0.889890
vt 0.778779 0.894832
vt 0.110110 0.889890
vt 0.001001 0.998999
vt 0.110110 0.998999
vt 0.894832 0.778779
vt 0.889890 0.887888
vt 0.894832 0.887888
vt 0.998999 0.112112
vt 0.889890 0.221221
vt 0.998999 0.221221
vt 0.887888 0.901777
vt 0.778779 0.896834
vt 0.778779 0.901777
vt 0.554555 0.001001
vt 0.445445 0.443443
vt 0.554555 0.443443
vt 0.887888 0.908721
vt 0.778779 0.903779
vt 0.778779 0.908721
vt 0.901777 0.778779
vt 0.896834 0.887888
vt 0.901777 0.887888
vt 0.887888 0.915666
vt 0.778779 0.910723
vt 0.778779 0.915666
vt 0.901777 0.776777
vt 0.889890 0.556557
vt 0.889890 0.776777
vt 0.776777 0.889890
vt 0.556557 0.915666
vt 0.776777 0.915666
vt 0.665666 0.001001
vt 0.556557 0.443443
vt 0.665666 0.443443
vt 0.445445 0.445445
vt 0.665666 0.665666
vt 0.665666 0.445445
vt 0.776777 0.957332
vt 0.556557 0.945445
vt 0.556557 0.957332
vt 0.556557 0.667668
vt 0.665666 0.887888
vt 0.665666 0.667668
vt 0.221221 0.889890
vt 0.112112 0.998999
vt 0.221221 0.998999
vt 0.665666 0.978166
vt 0.557558 0.978166
vt 0.665666 0.974224
vt 0.922610 0.779780
vt 0.918669 0.887888
vt 0.922610 0.887888
vt 0.889890 0.223223
vt 0.998999 0.332332
vt 0.998999 0.223223
vt 0.887888 0.917668
vt 0.778779 0.922610
vt 0.887888 0.922610
vt 0.903779 0.778779
vt 0.908721 0.887888
vt 0.908721 0.778779
vt 0.887888 0.924612
vt 0.778779 0.929555
vt 0.887888 0.929555
vt 0.001001 0.001001
vt 0.443443 0.443443
vt 0.443443 0.001001
vt 0.776777 0.667668
vt 0.667668 0.887888
vt 0.776777 0.887888
vt 0.332332 0.889890
vt 0.223223 0.998999
vt 0.332332 0.998999
vt 0.887888 0.931557
vt 0.778779 0.936499
vt 0.887888 0.936499
vt 0.998999 0.334334
vt 0.889890 0.443443
vt 0.998999 0.443443
vt 0.910723 0.778779
vt 0.915666 0.887888
vt 0.915666 0.778779
vt 0.443443 0.889890
vt 0.334334 0.998999
vt 0.443443 0.998999
vt 0.887888 0.938501
vt 0.778779 0.943443
vt 0.887888 0.943443
vt 0.667668 0.001001
vt 0.776777 0.443443
vt 0.776777 0.001001
vt 0.887888 0.945445
vt 0.778779 0.950388
vt 0.887888 0.950388
vt 0.917668 0.556557
vt 0.922610 0.665666
vt 0.922610 0.556557
vt 0.887888 0.952390
vt 0.778779 0.957332
vt 0.887888 0.957332
vt 0.915666 0.556557
vt 0.903779 0.776777
vt 0.915666 0.776777
vt 0.776777 0.943443
vt 0.556557 0.917668
vt 0.556557 0.943443
vt 0.778779 0.001001
vt 0.887888 0.443443
vt 0.887888 0.001001
vt 0.667668 0.445445
vt 0.887888 0.665666
vt 0.887888 0.445445
vt 0.776777 0.959334
vt 0.556557 0.971221
vt 0.776777 0.971221
vt 0.887888 0.667668
vt 0.778779 0.887888
vt 0.887888 0.887888
vt 0.998999 0.445445
vt 0.889890 0.554555
vt 0.998999 0.554555
vt 0.556557 0.973223
vt 0.556557 0.977165
vt 0.664665 0.973223
vt 0.921609 0.778779
vt 0.917668 0.778779
vt 0.917668 0.886887
vt 0.445445 0.889890
vt 0.554555 0.998999
vt 0.554555 0.889890
vt 0.887888 0.964277
vt 0.778779 0.959334
vt 0.778779 0.964277
vt 0.922610 0.667668
vt 0.917668 0.776777
vt 0.922610 0.776777
vt 0.887888 0.971221
vt 0.778779 0.966279
vt 0.778779 0.971221
vt 0.001001 0.445445
vt 0.443443 0.887888
vt 0.443443 0.445445
vt 0.554555 0.667668
vt 0.889890 0.001001
vt 0.887888 0.889890
vt 0.001001 0.889890
vt 0.889890 0.778779
vt 0.889890 0.112112
vt 0.887888 0.896834
vt 0.445445 0.001001
vt 0.887888 0.903779
vt 0.896834 0.778779
vt 0.887888 0.910723
vt 0.901777 0.556557
vt 0.556557 0.889890
vt 0.556557 0.001001
vt 0.445445 0.665666
vt 0.776777 0.945445
vt 0.556557 0.887888
vt 0.112112 0.889890
vt 0.889890 0.332332
vt 0.778779 0.917668
vt 0.903779 0.887888
vt 0.778779 0.924612
vt 0.001001 0.443443
vt 0.667668 0.667668
vt 0.223223 0.889890
vt 0.778779 0.931557
vt 0.889890 0.334334
vt 0.910723 0.887888
vt 0.334334 0.889890
vt 0.778779 0.938501
vt 0.667668 0.443443
vt 0.778779 0.945445
vt 0.917668 0.665666
vt 0.778779 0.952390
vt 0.903779 0.556557
vt 0.776777 0.917668
vt 0.778779 0.443443
vt 0.667668 0.665666
vt 0.556557 0.959334
vt 0.778779 0.667668
vt 0.889890 0.445445
vt 0.445445 0.998999
vt 0.887888 0.959334
vt 0.917668 0.667668
vt 0.887888 0.966279
vt 0.001001 0.887888
vn -0.4819 0.0000 -0.8762
vn 0.0000 1.0000 0.0000
vn 0.9934 0.0000 -0.1149
vn 0.9940 0.0000 -0.1090
vn 0.9946 0.0000 -0.1041
vn -1.0000 0.0000 0.0000
vn 0.0000 0.0000 -1.0000
vn 0.0000 0.9485 0.3167
vn 0.0000 0.0000 1.0000
vn 1.0000 0.0000 0.0000
vn 0.0000 -1.0000 0.0000
vn 0.4819 0.0000 -0.8762
vn -0.9934 0.0000 -0.1149
vn -0.9940 0.0000 -0.1090
vn -0.9946 0.0000 -0.1041
usemtl cenario
s off
f 1/1/1 5/2/1 4/3/1
f 58/4/2 8/5/2 59/6/2
f 6/7/3 7/8/3 2/9/3
f 62/10/2 12/11/2 63/12/2
f 10/13/4 11/14/4 9/15/4
f 65/16/2 16/17/2 66/18/2
f 14/19/5 15/20/5 13/21/5
f 19/22/6 20/23/6 18/24/6
f 57/25/7 8/26/7 6/27/7
f 61/28/7 12/29/7 10/30/7
f 64/31/7 16/32/7 14/33/7
f 23/34/6 26/35/6 27/36/6
f 22/37/8 68/38/8 87/39/8
f 69/40/7 17/41/7 33/42/7
f 24/43/8 27/44/8 26/45/8
f 3/46/9 26/47/9 22/48/9
f 20/49/9 67/50/9 18/51/9
f 28/52/7 77/53/7 5/54/7
f 2/55/7 56/56/7 28/57/7
f 5/58/6 2/59/6 28/60/6
f 78/61/7 30/62/7 29/63/7
f 84/64/2 30/65/2 80/66/2
f 32/67/10 29/68/10 30/69/10
f 31/70/11 78/71/11 29/72/11
f 3/73/2 69/74/2 33/75/2
f 34/76/12 38/77/12 35/78/12
f 58/79/2 41/80/2 40/81/2
f 40/82/13 39/83/13 35/84/13
f 62/85/2 45/86/2 44/87/2
f 44/88/14 43/89/14 42/90/14
f 65/91/2 49/92/2 48/93/2
f 48/94/15 47/95/15 46/96/15
f 54/97/10 53/98/10 52/99/10
f 41/100/7 57/101/7 39/102/7
f 45/103/7 61/104/7 43/105/7
f 49/106/7 64/107/7 47/108/7
f 71/109/10 74/110/10 70/111/10
f 68/112/8 70/113/8 87/114/8
f 51/115/7 69/116/7 86/117/7
f 75/118/8 72/119/8 74/120/8
f 74/121/9 36/122/9 70/123/9
f 67/124/9 54/125/9 52/126/9
f 76/127/7 77/128/7 56/129/7
f 35/130/7 76/131/7 56/132/7
f 38/133/10 76/134/10 35/135/10
f 81/136/7 78/137/7 79/138/7
f 81/139/2 84/140/2 80/141/2
f 79/142/6 85/143/6 81/144/6
f 78/145/11 83/146/11 79/147/11
f 69/148/2 36/149/2 86/150/2
f 1/1/1 2/151/1 5/2/1
f 58/4/2 7/152/2 8/5/2
f 6/7/3 8/153/3 7/8/3
f 62/10/2 11/154/2 12/11/2
f 10/13/4 12/155/4 11/14/4
f 65/16/2 15/156/2 16/17/2
f 14/19/5 16/157/5 15/20/5
f 19/22/6 21/158/6 20/23/6
f 57/25/7 59/159/7 8/26/7
f 61/28/7 63/160/7 12/29/7
f 64/31/7 66/161/7 16/32/7
f 23/34/6 22/162/6 26/35/6
f 22/37/8 23/163/8 68/38/8
f 69/40/7 60/164/7 17/41/7
f 24/43/8 25/165/8 27/44/8
f 3/46/9 24/166/9 26/47/9
f 20/49/9 50/167/9 67/50/9
f 28/52/7 56/168/7 77/53/7
f 78/61/7 80/169/7 30/62/7
f 84/64/2 32/170/2 30/65/2
f 32/67/10 31/171/10 29/68/10
f 31/70/11 82/172/11 78/71/11
f 3/73/2 87/173/2 69/74/2
f 34/76/12 37/174/12 38/77/12
f 58/79/2 59/175/2 41/80/2
f 40/82/13 41/176/13 39/83/13
f 62/85/2 63/177/2 45/86/2
f 44/88/14 45/178/14 43/89/14
f 65/91/2 66/179/2 49/92/2
f 48/94/15 49/180/15 47/95/15
f 54/97/10 55/181/10 53/98/10
f 41/100/7 59/182/7 57/101/7
f 45/103/7 63/183/7 61/104/7
f 49/106/7 66/184/7 64/107/7
f 71/109/10 75/185/10 74/110/10
f 68/112/8 71/186/8 70/113/8
f 51/115/7 60/187/7 69/116/7
f 75/118/8 73/188/8 72/119/8
f 74/121/9 72/189/9 36/122/9
f 67/124/9 50/190/9 54/125/9
f 76/127/7 38/191/7 77/128/7
f 81/136/7 80/192/7 78/137/7
f 81/139/2 85/193/2 84/140/2
f 79/142/6 83/194/6 85/143/6
f 78/145/11 82/195/11 83/146/11
f 69/148/2 87/196/2 36/149/2
