# Blender v2.81 (sub 16) OBJ File: ''
# www.blender.org
mtllib skybox.mtl
o Cube
v 1.000000 1.000000 -1.000000
v 1.000000 -1.000000 -1.000000
v 1.000000 1.000000 1.000000
v 1.000000 -1.000000 1.000000
v -1.000000 1.000000 -1.000000
v -1.000000 -1.000000 -1.000000
v -1.000000 1.000000 1.000000
v -1.000000 -1.000000 1.000000
vt 0.251298 0.665026
vt 0.499918 0.999939
vt 0.499918 0.665026
vt 0.000003 0.335794
vt 0.250251 0.335794
vt 0.750013 0.334154
vt 0.998786 0.665026
vt 0.998786 0.334154
vt 0.250251 0.000326
vt 0.500010 0.334154
vt 0.500010 0.000326
vt 0.750013 0.665026
vt 0.251298 0.999939
vt 0.000003 0.665026
vn 0.0000 -1.0000 0.0000
vn 0.0000 0.0000 -1.0000
vn 1.0000 0.0000 0.0000
vn 0.0000 1.0000 0.0000
vn -1.0000 0.0000 0.0000
vn 0.0000 0.0000 1.0000
usemtl Material
s off
f 3/1/1 5/2/1 1/3/1
f 8/4/2 3/1/2 4/5/2
f 6/6/3 7/7/3 8/8/3
f 8/9/4 2/10/4 6/11/4
f 4/5/5 1/3/5 2/10/5
f 2/10/6 5/12/6 6/6/6
f 3/1/1 7/13/1 5/2/1
f 8/4/2 7/14/2 3/1/2
f 6/6/3 5/12/3 7/7/3
f 8/9/4 4/5/4 2/10/4
f 4/5/5 3/1/5 1/3/5
f 2/10/6 1/3/6 5/12/6
